# xmcd
#
# Track frame offsets:
#	150
#	16941
#	33669
#	50397
#
# Disc length: 957 seconds
#
# Revision: 0
# Processed by: cddbd v1.5PL3 Copyright (c) Steve Scherf et al.
# Submitted via: dBpowerAMP V4.0
#
DISCID=2903bb04
DTITLE=Trace Adkins - Single
DYEAR=2001
DGENRE=Country
TTITLE0=Im Trying
TTITLE1=In Trying
TTITLE2=Im Trying
TTITLE3=Im Trying
EXTD=
EXTT0=
EXTT1=
EXTT2=
EXTT3=
PLAYORDER=
